<svg width="34" height="34" viewBox="0 0 34 34" fill="none" xmlns="http://www.w3.org/2000/svg">
<g opacity="0.3">
<circle cx="17" cy="17" r="17" fill="white"/>
<path d="M18.6107 13.7814C18.742 13.586 18.8477 13.3971 18.9918 13.2305C19.7476 12.3466 20.7275 11.9047 21.8708 11.8214C22.5882 11.7702 23.2992 11.8342 23.9909 12.0456C25.2559 12.4299 26.0085 13.3042 26.3832 14.5436C26.6618 15.4627 26.7323 16.4074 26.7355 17.3586C26.7419 19.6036 26.7355 21.8517 26.7419 24.0967C26.7419 24.2408 26.7067 24.2825 26.5593 24.2793C25.4128 24.2728 24.2663 24.2728 23.1166 24.2793C22.9789 24.2793 22.9501 24.2376 22.9501 24.1095C22.9533 22.0567 22.9533 20.0007 22.9533 17.9479C22.9533 17.4291 22.9181 16.9134 22.7676 16.4139C22.5306 15.6196 21.9829 15.1905 21.1535 15.1489C20.9069 15.136 20.6635 15.1489 20.4201 15.1969C19.5618 15.3602 19.1007 15.9207 18.8893 16.7309C18.742 17.2945 18.7324 17.871 18.7292 18.4475C18.726 20.3305 18.726 22.2136 18.7324 24.0999C18.7324 24.2408 18.7003 24.2857 18.5498 24.2857C17.4065 24.2793 16.2664 24.2793 15.1231 24.2857C14.9854 24.2857 14.9438 24.2568 14.9438 24.1127C14.947 20.1736 14.947 16.2377 14.9438 12.2986C14.9438 12.1609 14.9694 12.1097 15.1231 12.1097C16.212 12.1161 17.3008 12.1161 18.3897 12.1097C18.5306 12.1097 18.5819 12.1385 18.5787 12.2922C18.569 12.7309 18.5755 13.1665 18.5755 13.6052C18.5787 13.6533 18.5626 13.7077 18.6107 13.7814Z" fill="#132947"/>
<path d="M8.79489 18.1976C8.79489 16.228 8.79809 14.2617 8.79169 12.2921C8.79169 12.1448 8.83332 12.1064 8.97743 12.1096C10.1239 12.116 11.2704 12.116 12.4201 12.1096C12.5515 12.1096 12.5899 12.1416 12.5899 12.2761C12.5867 16.2248 12.5867 20.1735 12.5899 24.119C12.5899 24.2567 12.5482 24.2856 12.4201 24.2824C11.2672 24.2759 10.1143 24.2759 8.96142 24.2824C8.8109 24.2824 8.79169 24.2343 8.79169 24.0998C8.79809 22.1335 8.79489 20.1671 8.79489 18.1976Z" fill="#132947"/>
<path d="M8.50001 8.25667C8.50321 7.04291 9.47678 6.06614 10.6841 6.06934C11.9043 6.07255 12.8875 7.04932 12.8875 8.26307C12.8875 9.48644 11.8947 10.4664 10.6553 10.4632C9.46717 10.4568 8.49681 9.46722 8.50001 8.25667Z" fill="#132947"/>
</g>
</svg>
