<svg width="34" height="34" viewBox="0 0 34 34" fill="none" xmlns="http://www.w3.org/2000/svg">
<g opacity="0.3">
<circle cx="17" cy="17" r="17" fill="white"/>
<path d="M6.07141 24.6169C8.11715 25.9416 10.6175 26.7143 13.3452 26.7143C22.0964 26.7143 27.0971 19.539 26.7561 13.026C27.6654 12.3636 28.4609 11.5909 29.1428 10.7078C28.3473 11.039 27.4381 11.3701 26.4152 11.4805C27.4381 10.9286 28.12 10.0455 28.4609 8.94156C27.5517 9.49351 26.5288 9.82468 25.506 10.0455C24.5967 9.05195 23.3466 8.5 21.9827 8.5C19.0278 8.5 16.7547 11.2597 17.4366 14.1299C13.4588 13.9091 10.0492 12.1429 7.66254 9.38312C6.41237 11.3701 6.98063 14.1299 9.14002 15.4545C8.34446 15.4545 7.66254 15.2338 6.98063 14.9026C6.98063 17 8.45811 18.987 10.7312 19.4286C10.0492 19.6493 9.36733 19.6494 8.57176 19.539C9.14002 21.4156 10.9585 22.7403 13.0042 22.7403C11.0721 24.2857 8.57176 24.9481 6.07141 24.6169Z" fill="#132947"/>
</g>
</svg>
