<svg width="34" height="34" viewBox="0 0 34 34" fill="none" xmlns="http://www.w3.org/2000/svg">
<g opacity="0.3">
<circle cx="17" cy="17" r="17" fill="white"/>
<path d="M27.4937 11.4748C27.278 10.4228 26.4873 9.67135 25.5527 9.37078C23.8993 8.91992 16.9982 8.91992 16.9982 8.91992C16.9982 8.91992 10.169 8.91992 8.44368 9.37078C7.50915 9.67135 6.79028 10.4228 6.50273 11.4748C6.07141 13.203 6.07141 16.9602 6.07141 16.9602C6.07141 16.9602 6.07141 20.7173 6.50273 22.5207C6.79028 23.4975 7.50915 24.3241 8.44368 24.5495C10.169 25.0004 16.9982 25.0004 16.9982 25.0004C16.9982 25.0004 23.8275 25.0004 25.5527 24.5495C26.4873 24.249 27.2061 23.4975 27.4937 22.5207C27.925 20.7173 27.925 16.9602 27.925 16.9602C27.925 16.9602 27.9969 13.203 27.4937 11.4748Z" fill="#132947"/>
<path d="M14.7706 20.4161V13.5781L20.5216 16.9595L14.7706 20.4161Z" fill="white"/>
</g>
</svg>
